<svg xmlns="http://www.w3.org/2000/svg" xmlns:xlink="http://www.w3.org/1999/xlink" width="400" zoomAndPan="magnify" viewBox="0 0 300 128.249994" height="171" preserveAspectRatio="xMidYMid meet" version="1.2"><defs><clipPath id="c36c3f4fab"><path d="M 1 0 L 299.125 0 L 299.125 127.503906 L 1 127.503906 Z M 1 0 "/></clipPath><clipPath id="e4441e5b16"><path d="M 0.855469 0.433594 L 110.402344 0.433594 L 110.402344 126.890625 L 0.855469 126.890625 Z M 0.855469 0.433594 "/></clipPath><clipPath id="904c218c9b"><rect x="0" width="141" y="0" height="56"/></clipPath><clipPath id="c38143d913"><rect x="0" width="30" y="0" height="69"/></clipPath><clipPath id="951fd79230"><rect x="0" width="120" y="0" height="22"/></clipPath><clipPath id="6ade8536d3"><path d="M 105 104 L 298.125 104 L 298.125 118 L 105 118 Z M 105 104 "/></clipPath><clipPath id="dca622e4bb"><path d="M 0.574219 1 L 7 1 L 7 10 L 0.574219 10 Z M 0.574219 1 "/></clipPath><clipPath id="21b73f9a6c"><rect x="0" width="194" y="0" height="14"/></clipPath><clipPath id="895d80e0ae"><rect x="0" width="299" y="0" height="128"/></clipPath></defs><g id="1df7bb350f"><g clip-rule="nonzero" clip-path="url(#c36c3f4fab)"><g transform="matrix(1,0,0,1,1,0.000000000000020206)"><g clip-path="url(#895d80e0ae)"><g clip-rule="nonzero" clip-path="url(#e4441e5b16)"><path style=" stroke:none;fill-rule:evenodd;fill:#ffffff;fill-opacity:1;" d="M 55.542969 0.433594 L 110.210938 32.121094 L 110.210938 51.621094 L 103.363281 55.449219 L 51.25 85.625 L 55.542969 88.179688 L 103.363281 60.554688 L 110.210938 56.609375 L 110.210938 95.375 L 55.542969 127.0625 L 10.972656 101.296875 L 17.820312 97.234375 L 103.363281 47.789062 L 103.363281 36.066406 L 55.542969 8.441406 L 7.722656 36.066406 L 7.722656 71.929688 L 27.804688 60.554688 L 27.917969 47.90625 L 55.542969 31.773438 L 73.070312 41.984375 L 7.722656 79.476562 L 0.875 83.421875 L 0.875 32.121094 Z M 44.75 89.339844 L 24.554688 101.179688 L 31.632812 105.242188 L 55.542969 119.167969 L 79.453125 105.242188 L 103.363281 91.429688 L 103.363281 68.101562 L 55.660156 95.722656 Z M 34.652344 56.496094 L 59.835938 42.101562 L 55.660156 39.433594 L 34.769531 51.621094 Z M 34.652344 56.496094 "/></g><g transform="matrix(1,0,0,1,155,48)"><g id="8593df9d08" clip-path="url(#904c218c9b)"><g style="fill:#ffffff;fill-opacity:1;"><g transform="translate(1.058131, 40.259174)"><path style="stroke:none" d="M 13.640625 -0.28125 C 13.378906 -0.425781 13.117188 -0.554688 12.859375 -0.671875 C 12.597656 -0.785156 12.335938 -0.894531 12.078125 -1 C 11.109375 -1.445312 10.210938 -2 9.390625 -2.65625 C 8.578125 -3.3125 7.816406 -4.046875 7.109375 -4.859375 C 7.066406 -4.941406 7.007812 -5.023438 6.9375 -5.109375 C 6.863281 -5.203125 6.785156 -5.304688 6.703125 -5.421875 C 6.523438 -5.722656 6.332031 -6.03125 6.125 -6.34375 C 5.914062 -6.664062 5.679688 -6.957031 5.421875 -7.21875 C 5.234375 -7.476562 5.03125 -7.8125 4.8125 -8.21875 C 4.625 -8.550781 4.425781 -8.894531 4.21875 -9.25 C 4.019531 -9.601562 3.828125 -9.953125 3.640625 -10.296875 C 3.410156 -10.628906 3.238281 -10.984375 3.125 -11.359375 C 2.976562 -11.722656 2.828125 -12.0625 2.671875 -12.375 C 2.523438 -12.695312 2.414062 -13.046875 2.34375 -13.421875 C 2.3125 -13.640625 2.253906 -13.859375 2.171875 -14.078125 C 2.097656 -14.304688 2.023438 -14.535156 1.953125 -14.765625 C 1.921875 -15.140625 1.875 -15.503906 1.8125 -15.859375 C 1.757812 -16.210938 1.734375 -16.570312 1.734375 -16.9375 C 1.691406 -17.46875 1.660156 -18 1.640625 -18.53125 C 1.628906 -19.070312 1.640625 -19.625 1.671875 -20.1875 C 1.671875 -20.445312 1.679688 -20.695312 1.703125 -20.9375 C 1.722656 -21.1875 1.753906 -21.441406 1.796875 -21.703125 C 1.828125 -21.890625 1.851562 -22.066406 1.875 -22.234375 C 1.894531 -22.398438 1.921875 -22.554688 1.953125 -22.703125 C 1.953125 -23.078125 1.988281 -23.441406 2.0625 -23.796875 C 2.144531 -24.148438 2.222656 -24.515625 2.296875 -24.890625 C 2.367188 -25.148438 2.441406 -25.390625 2.515625 -25.609375 C 2.585938 -25.835938 2.644531 -26.082031 2.6875 -26.34375 C 2.71875 -26.445312 2.753906 -26.554688 2.796875 -26.671875 C 2.835938 -26.785156 2.875 -26.898438 2.90625 -27.015625 C 3.019531 -27.273438 3.128906 -27.535156 3.234375 -27.796875 C 3.347656 -28.054688 3.484375 -28.316406 3.640625 -28.578125 C 3.828125 -28.953125 4.019531 -29.320312 4.21875 -29.6875 C 4.425781 -30.0625 4.660156 -30.414062 4.921875 -30.75 C 5.140625 -30.976562 5.332031 -31.222656 5.5 -31.484375 C 5.675781 -31.742188 5.875 -31.988281 6.09375 -32.21875 C 6.425781 -32.550781 6.75 -32.875 7.0625 -33.1875 C 7.382812 -33.507812 7.710938 -33.816406 8.046875 -34.109375 C 8.128906 -34.265625 8.300781 -34.414062 8.5625 -34.5625 C 8.851562 -34.75 9.15625 -34.953125 9.46875 -35.171875 C 9.789062 -35.398438 10.117188 -35.585938 10.453125 -35.734375 C 10.941406 -35.992188 11.410156 -36.253906 11.859375 -36.515625 C 12.304688 -36.773438 12.769531 -37.035156 13.25 -37.296875 C 13.4375 -37.410156 13.640625 -37.515625 13.859375 -37.609375 C 14.085938 -37.703125 14.296875 -37.804688 14.484375 -37.921875 C 14.597656 -37.953125 14.707031 -37.984375 14.8125 -38.015625 C 14.925781 -38.054688 15.039062 -38.078125 15.15625 -38.078125 C 15.375 -38.117188 15.59375 -38.164062 15.8125 -38.21875 C 16.039062 -38.28125 16.269531 -38.328125 16.5 -38.359375 C 16.90625 -38.398438 17.332031 -38.515625 17.78125 -38.703125 C 18.039062 -38.773438 18.289062 -38.816406 18.53125 -38.828125 C 18.78125 -38.847656 19.035156 -38.878906 19.296875 -38.921875 C 19.742188 -39.035156 20.191406 -39.09375 20.640625 -39.09375 C 21.085938 -39.09375 21.550781 -39.070312 22.03125 -39.03125 C 22.070312 -39.03125 22.097656 -39.03125 22.109375 -39.03125 C 22.128906 -39.03125 22.160156 -39.03125 22.203125 -39.03125 C 22.492188 -38.914062 22.78125 -38.859375 23.0625 -38.859375 C 23.34375 -38.859375 23.613281 -38.859375 23.875 -38.859375 C 24.289062 -38.828125 24.691406 -38.8125 25.078125 -38.8125 C 25.472656 -38.8125 25.875 -38.8125 26.28125 -38.8125 C 26.507812 -38.8125 26.734375 -38.8125 26.953125 -38.8125 C 27.179688 -38.8125 27.40625 -38.789062 27.625 -38.75 C 28.070312 -38.75 28.519531 -38.695312 28.96875 -38.59375 C 29.113281 -38.550781 29.25 -38.519531 29.375 -38.5 C 29.507812 -38.476562 29.65625 -38.453125 29.8125 -38.421875 C 30.21875 -38.304688 30.613281 -38.171875 31 -38.015625 C 31.394531 -37.867188 31.757812 -37.648438 32.09375 -37.359375 C 32.351562 -37.203125 32.578125 -36.957031 32.765625 -36.625 C 32.878906 -36.363281 32.9375 -36.085938 32.9375 -35.796875 C 32.976562 -35.609375 33 -35.410156 33 -35.203125 C 33 -34.992188 33 -34.796875 33 -34.609375 C 33.03125 -34.273438 33.054688 -33.945312 33.078125 -33.625 C 33.097656 -33.3125 33.144531 -33.007812 33.21875 -32.71875 C 33.289062 -32.414062 33.328125 -32.132812 33.328125 -31.875 C 33.367188 -31.726562 33.394531 -31.570312 33.40625 -31.40625 C 33.425781 -31.238281 33.457031 -31.0625 33.5 -30.875 C 33.570312 -30.5 33.625 -30.113281 33.65625 -29.71875 C 33.695312 -29.332031 33.71875 -28.929688 33.71875 -28.515625 C 33.71875 -28.253906 33.609375 -28.066406 33.390625 -27.953125 C 33.316406 -27.921875 33.210938 -27.921875 33.078125 -27.953125 C 32.941406 -27.992188 32.835938 -28.050781 32.765625 -28.125 C 32.765625 -28.195312 32.742188 -28.253906 32.703125 -28.296875 C 32.671875 -28.335938 32.65625 -28.375 32.65625 -28.40625 C 32.625 -28.59375 32.566406 -28.785156 32.484375 -28.984375 C 32.410156 -29.191406 32.335938 -29.375 32.265625 -29.53125 C 32.078125 -30.269531 31.816406 -30.957031 31.484375 -31.59375 C 31.296875 -31.96875 31.097656 -32.320312 30.890625 -32.65625 C 30.691406 -32.988281 30.5 -33.328125 30.3125 -33.671875 C 29.9375 -34.222656 29.546875 -34.648438 29.140625 -34.953125 C 28.878906 -35.140625 28.609375 -35.332031 28.328125 -35.53125 C 28.046875 -35.738281 27.753906 -35.9375 27.453125 -36.125 C 27.160156 -36.351562 26.753906 -36.519531 26.234375 -36.625 C 26.003906 -36.695312 25.785156 -36.78125 25.578125 -36.875 C 25.378906 -36.96875 25.164062 -37.035156 24.9375 -37.078125 C 24.414062 -37.222656 24.070312 -37.3125 23.90625 -37.34375 C 23.738281 -37.382812 23.410156 -37.425781 22.921875 -37.46875 C 22.554688 -37.539062 22.195312 -37.566406 21.84375 -37.546875 C 21.488281 -37.535156 21.125 -37.53125 20.75 -37.53125 C 19.96875 -37.445312 19.09375 -37.203125 18.125 -36.796875 C 17.675781 -36.609375 17.253906 -36.375 16.859375 -36.09375 C 16.460938 -35.8125 16.082031 -35.523438 15.71875 -35.234375 C 15.5625 -35.160156 15.4375 -35.078125 15.34375 -34.984375 C 15.25 -34.890625 15.148438 -34.804688 15.046875 -34.734375 C 14.628906 -34.472656 14.265625 -34.164062 13.953125 -33.8125 C 13.640625 -33.457031 13.332031 -33.070312 13.03125 -32.65625 C 12.882812 -32.4375 12.722656 -32.210938 12.546875 -31.984375 C 12.378906 -31.765625 12.222656 -31.5625 12.078125 -31.375 C 11.742188 -30.78125 11.460938 -30.191406 11.234375 -29.609375 C 11.015625 -29.035156 10.789062 -28.445312 10.5625 -27.84375 C 10.457031 -27.507812 10.359375 -27.179688 10.265625 -26.859375 C 10.171875 -26.546875 10.125 -26.203125 10.125 -25.828125 C 10.082031 -25.796875 10.0625 -25.742188 10.0625 -25.671875 C 9.914062 -25.222656 9.832031 -24.773438 9.8125 -24.328125 C 9.789062 -23.878906 9.765625 -23.429688 9.734375 -22.984375 C 9.734375 -22.609375 9.722656 -22.210938 9.703125 -21.796875 C 9.679688 -21.390625 9.632812 -20.984375 9.5625 -20.578125 C 9.519531 -20.316406 9.488281 -20.046875 9.46875 -19.765625 C 9.457031 -19.484375 9.453125 -19.195312 9.453125 -18.90625 C 9.453125 -18.414062 9.453125 -17.9375 9.453125 -17.46875 C 9.453125 -17.007812 9.453125 -16.519531 9.453125 -16 C 9.453125 -15.625 9.476562 -15.257812 9.53125 -14.90625 C 9.59375 -14.550781 9.660156 -14.1875 9.734375 -13.8125 C 9.804688 -13.507812 9.878906 -13.207031 9.953125 -12.90625 C 10.023438 -12.613281 10.082031 -12.316406 10.125 -12.015625 C 10.15625 -11.679688 10.21875 -11.363281 10.3125 -11.0625 C 10.40625 -10.769531 10.472656 -10.472656 10.515625 -10.171875 C 10.515625 -9.953125 10.550781 -9.75 10.625 -9.5625 C 10.695312 -9.375 10.769531 -9.1875 10.84375 -9 C 10.957031 -8.738281 11.078125 -8.488281 11.203125 -8.25 C 11.335938 -8.007812 11.476562 -7.757812 11.625 -7.5 C 11.882812 -7.125 12.132812 -6.71875 12.375 -6.28125 C 12.625 -5.851562 12.84375 -5.421875 13.03125 -4.984375 C 13.289062 -4.492188 13.679688 -4.003906 14.203125 -3.515625 C 14.347656 -3.367188 14.476562 -3.28125 14.59375 -3.25 C 15.53125 -2.613281 16.59375 -2.085938 17.78125 -1.671875 C 17.894531 -1.640625 18.0625 -1.625 18.28125 -1.625 C 18.695312 -1.582031 19.109375 -1.539062 19.515625 -1.5 C 19.921875 -1.46875 20.3125 -1.429688 20.6875 -1.390625 C 21.175781 -1.359375 21.660156 -1.332031 22.140625 -1.3125 C 22.628906 -1.289062 23.113281 -1.300781 23.59375 -1.34375 C 23.664062 -1.34375 23.726562 -1.34375 23.78125 -1.34375 C 23.84375 -1.34375 23.894531 -1.34375 23.9375 -1.34375 C 24.226562 -1.414062 24.503906 -1.476562 24.765625 -1.53125 C 25.035156 -1.59375 25.300781 -1.640625 25.5625 -1.671875 C 25.738281 -1.753906 25.929688 -1.820312 26.140625 -1.875 C 26.347656 -1.925781 26.546875 -1.988281 26.734375 -2.0625 C 27.023438 -2.175781 27.300781 -2.316406 27.5625 -2.484375 C 27.820312 -2.648438 28.085938 -2.8125 28.359375 -2.96875 C 28.648438 -3.1875 28.914062 -3.40625 29.15625 -3.625 C 29.40625 -3.851562 29.640625 -4.097656 29.859375 -4.359375 C 30.160156 -4.734375 30.421875 -5.109375 30.640625 -5.484375 C 30.828125 -5.859375 30.992188 -6.25 31.140625 -6.65625 C 31.296875 -7.0625 31.445312 -7.453125 31.59375 -7.828125 C 31.664062 -8.054688 31.738281 -8.28125 31.8125 -8.5 C 31.894531 -8.71875 31.953125 -8.921875 31.984375 -9.109375 C 32.097656 -9.410156 32.25 -9.726562 32.4375 -10.0625 C 32.550781 -10.363281 32.71875 -10.585938 32.9375 -10.734375 C 33.007812 -10.773438 33.09375 -10.8125 33.1875 -10.84375 C 33.28125 -10.882812 33.363281 -10.867188 33.4375 -10.796875 C 33.625 -10.722656 33.71875 -10.59375 33.71875 -10.40625 C 33.71875 -10.25 33.71875 -10.101562 33.71875 -9.96875 C 33.71875 -9.84375 33.679688 -9.707031 33.609375 -9.5625 C 33.460938 -9.15625 33.390625 -8.648438 33.390625 -8.046875 C 33.390625 -7.378906 33.390625 -6.707031 33.390625 -6.03125 C 33.390625 -5.363281 33.390625 -4.675781 33.390625 -3.96875 C 33.390625 -3.851562 33.390625 -3.738281 33.390625 -3.625 C 33.390625 -3.519531 33.390625 -3.410156 33.390625 -3.296875 C 33.316406 -3.078125 33.222656 -2.929688 33.109375 -2.859375 C 33.066406 -2.816406 33.023438 -2.785156 32.984375 -2.765625 C 32.953125 -2.742188 32.898438 -2.695312 32.828125 -2.625 C 32.117188 -2.175781 31.390625 -1.765625 30.640625 -1.390625 C 29.898438 -1.023438 29.097656 -0.710938 28.234375 -0.453125 C 28.160156 -0.410156 28.066406 -0.367188 27.953125 -0.328125 C 27.847656 -0.296875 27.738281 -0.28125 27.625 -0.28125 C 27.175781 -0.238281 26.726562 -0.160156 26.28125 -0.046875 C 25.832031 0.0546875 25.382812 0.128906 24.9375 0.171875 C 24.675781 0.203125 24.40625 0.242188 24.125 0.296875 C 23.84375 0.359375 23.554688 0.410156 23.265625 0.453125 C 22.222656 0.523438 21.195312 0.550781 20.1875 0.53125 C 19.175781 0.507812 18.148438 0.40625 17.109375 0.21875 C 16.921875 0.1875 16.722656 0.160156 16.515625 0.140625 C 16.316406 0.117188 16.125 0.109375 15.9375 0.109375 C 15.632812 0.078125 15.328125 0.0390625 15.015625 0 C 14.703125 -0.0390625 14.394531 -0.0976562 14.09375 -0.171875 C 13.863281 -0.242188 13.710938 -0.28125 13.640625 -0.28125 Z M 13.640625 -0.28125 "/></g></g><g style="fill:#ffffff;fill-opacity:1;"><g transform="translate(36.907028, 40.259174)"><path style="stroke:none" d="M 16.5 0.0625 C 16.457031 0.0625 16.425781 0.0625 16.40625 0.0625 C 16.394531 0.0625 16.367188 0.0625 16.328125 0.0625 C 15.617188 0.132812 14.890625 0.171875 14.140625 0.171875 C 13.398438 0.171875 12.65625 0.171875 11.90625 0.171875 C 10.382812 0.171875 8.847656 0.160156 7.296875 0.140625 C 5.753906 0.117188 4.21875 0.109375 2.6875 0.109375 C 2.570312 0.109375 2.457031 0.0976562 2.34375 0.078125 C 2.238281 0.0664062 2.128906 0.0390625 2.015625 0 C 1.828125 -0.113281 1.734375 -0.242188 1.734375 -0.390625 C 1.734375 -0.578125 1.789062 -0.726562 1.90625 -0.84375 C 2.269531 -1.101562 2.640625 -1.25 3.015625 -1.28125 C 3.242188 -1.320312 3.46875 -1.359375 3.6875 -1.390625 C 3.914062 -1.429688 4.125 -1.488281 4.3125 -1.5625 C 4.457031 -1.632812 4.59375 -1.695312 4.71875 -1.75 C 4.851562 -1.8125 4.976562 -1.878906 5.09375 -1.953125 C 5.457031 -2.109375 5.679688 -2.425781 5.765625 -2.90625 C 5.796875 -3.207031 5.820312 -3.492188 5.84375 -3.765625 C 5.863281 -4.046875 5.875 -4.316406 5.875 -4.578125 C 5.875 -4.992188 5.875 -5.394531 5.875 -5.78125 C 5.875 -6.175781 5.875 -6.578125 5.875 -6.984375 C 5.875 -7.359375 5.875 -7.722656 5.875 -8.078125 C 5.875 -8.429688 5.929688 -8.796875 6.046875 -9.171875 C 6.078125 -9.359375 6.09375 -9.535156 6.09375 -9.703125 C 6.09375 -9.867188 6.09375 -10.023438 6.09375 -10.171875 C 6.132812 -10.546875 6.15625 -10.921875 6.15625 -11.296875 C 6.15625 -11.671875 6.15625 -12.046875 6.15625 -12.421875 C 6.1875 -12.941406 6.210938 -13.46875 6.234375 -14 C 6.253906 -14.539062 6.300781 -15.09375 6.375 -15.65625 C 6.414062 -16.03125 6.441406 -16.394531 6.453125 -16.75 C 6.472656 -17.101562 6.46875 -17.46875 6.4375 -17.84375 C 6.394531 -18.582031 6.375 -19.320312 6.375 -20.0625 C 6.375 -20.8125 6.375 -21.539062 6.375 -22.25 C 6.375 -22.550781 6.375 -22.847656 6.375 -23.140625 C 6.375 -23.441406 6.335938 -23.722656 6.265625 -23.984375 C 6.222656 -24.171875 6.203125 -24.347656 6.203125 -24.515625 C 6.203125 -24.679688 6.203125 -24.84375 6.203125 -25 C 6.171875 -25.519531 6.15625 -26.050781 6.15625 -26.59375 C 6.15625 -27.132812 6.132812 -27.679688 6.09375 -28.234375 C 6.09375 -29.429688 6.09375 -30.625 6.09375 -31.8125 C 6.09375 -33.007812 6.09375 -34.207031 6.09375 -35.40625 C 6.09375 -35.582031 6.09375 -35.753906 6.09375 -35.921875 C 6.09375 -36.097656 6.078125 -36.257812 6.046875 -36.40625 C 6.046875 -36.664062 5.953125 -36.851562 5.765625 -36.96875 C 5.503906 -37.226562 5.257812 -37.375 5.03125 -37.40625 C 4.726562 -37.488281 4.421875 -37.566406 4.109375 -37.640625 C 3.796875 -37.710938 3.488281 -37.765625 3.1875 -37.796875 C 2.96875 -37.796875 2.722656 -37.925781 2.453125 -38.1875 C 2.378906 -38.34375 2.34375 -38.457031 2.34375 -38.53125 C 2.34375 -38.832031 2.472656 -38.984375 2.734375 -38.984375 C 3.148438 -39.015625 3.570312 -39.03125 4 -39.03125 C 4.425781 -39.03125 4.84375 -38.992188 5.25 -38.921875 C 5.851562 -38.847656 6.429688 -38.800781 6.984375 -38.78125 C 7.546875 -38.757812 8.109375 -38.804688 8.671875 -38.921875 C 8.859375 -38.960938 9.050781 -38.988281 9.25 -39 C 9.457031 -39.019531 9.65625 -39.03125 9.84375 -39.03125 C 10.21875 -39.03125 10.585938 -39.03125 10.953125 -39.03125 C 11.328125 -39.03125 11.703125 -39.050781 12.078125 -39.09375 C 12.265625 -39.125 12.457031 -39.140625 12.65625 -39.140625 C 12.863281 -39.140625 13.0625 -39.140625 13.25 -39.140625 C 16.050781 -39.109375 18.835938 -39.09375 21.609375 -39.09375 C 24.390625 -39.09375 27.175781 -39.070312 29.96875 -39.03125 C 30.125 -39.03125 30.265625 -39.03125 30.390625 -39.03125 C 30.523438 -39.03125 30.664062 -39.015625 30.8125 -38.984375 C 30.882812 -38.941406 30.976562 -38.875 31.09375 -38.78125 C 31.207031 -38.6875 31.265625 -38.601562 31.265625 -38.53125 C 31.335938 -38.269531 31.375 -38.015625 31.375 -37.765625 C 31.375 -37.523438 31.390625 -37.257812 31.421875 -36.96875 C 31.421875 -36.550781 31.421875 -36.128906 31.421875 -35.703125 C 31.421875 -35.273438 31.421875 -34.859375 31.421875 -34.453125 C 31.421875 -34.191406 31.429688 -33.910156 31.453125 -33.609375 C 31.472656 -33.304688 31.503906 -33.007812 31.546875 -32.71875 C 31.617188 -32.300781 31.65625 -31.878906 31.65625 -31.453125 C 31.65625 -31.023438 31.65625 -30.609375 31.65625 -30.203125 C 31.65625 -30.160156 31.644531 -30.109375 31.625 -30.046875 C 31.601562 -29.992188 31.59375 -29.929688 31.59375 -29.859375 C 31.59375 -29.828125 31.546875 -29.765625 31.453125 -29.671875 C 31.359375 -29.578125 31.273438 -29.546875 31.203125 -29.578125 C 31.085938 -29.578125 30.992188 -29.613281 30.921875 -29.6875 C 30.804688 -29.769531 30.75 -29.863281 30.75 -29.96875 C 30.675781 -30.195312 30.640625 -30.367188 30.640625 -30.484375 C 30.609375 -30.742188 30.546875 -30.984375 30.453125 -31.203125 C 30.359375 -31.429688 30.273438 -31.675781 30.203125 -31.9375 C 30.203125 -32.007812 30.160156 -32.117188 30.078125 -32.265625 C 29.929688 -32.523438 29.789062 -32.773438 29.65625 -33.015625 C 29.53125 -33.265625 29.394531 -33.5 29.25 -33.71875 C 28.914062 -34.238281 28.550781 -34.75 28.15625 -35.25 C 27.757812 -35.757812 27.320312 -36.21875 26.84375 -36.625 C 26.800781 -36.664062 26.707031 -36.722656 26.5625 -36.796875 C 26.488281 -36.867188 26.335938 -36.941406 26.109375 -37.015625 C 25.847656 -37.085938 25.597656 -37.132812 25.359375 -37.15625 C 25.117188 -37.175781 24.867188 -37.222656 24.609375 -37.296875 C 24.492188 -37.335938 24.378906 -37.359375 24.265625 -37.359375 C 24.160156 -37.359375 24.050781 -37.359375 23.9375 -37.359375 C 23.601562 -37.359375 23.265625 -37.359375 22.921875 -37.359375 C 22.585938 -37.359375 22.234375 -37.359375 21.859375 -37.359375 C 20.816406 -37.359375 19.753906 -37.359375 18.671875 -37.359375 C 17.597656 -37.359375 16.519531 -37.359375 15.4375 -37.359375 C 15.320312 -37.359375 15.207031 -37.359375 15.09375 -37.359375 C 14.988281 -37.359375 14.878906 -37.335938 14.765625 -37.296875 C 14.460938 -37.222656 14.3125 -37.054688 14.3125 -36.796875 C 14.3125 -36.722656 14.300781 -36.640625 14.28125 -36.546875 C 14.269531 -36.453125 14.28125 -36.367188 14.3125 -36.296875 C 14.3125 -35.734375 14.320312 -35.160156 14.34375 -34.578125 C 14.363281 -34.003906 14.375 -33.4375 14.375 -32.875 C 14.375 -32.65625 14.390625 -32.488281 14.421875 -32.375 C 14.503906 -31.925781 14.546875 -31.476562 14.546875 -31.03125 C 14.546875 -30.582031 14.546875 -30.117188 14.546875 -29.640625 C 14.546875 -29.046875 14.546875 -28.457031 14.546875 -27.875 C 14.546875 -27.300781 14.546875 -26.695312 14.546875 -26.0625 C 14.546875 -25.800781 14.546875 -25.53125 14.546875 -25.25 C 14.546875 -24.96875 14.503906 -24.675781 14.421875 -24.375 C 14.390625 -24.15625 14.378906 -23.929688 14.390625 -23.703125 C 14.410156 -23.484375 14.421875 -23.265625 14.421875 -23.046875 C 14.421875 -22.773438 14.421875 -22.507812 14.421875 -22.25 C 14.421875 -21.988281 14.421875 -21.726562 14.421875 -21.46875 C 14.421875 -21.25 14.570312 -21.101562 14.875 -21.03125 C 14.914062 -21.03125 14.941406 -21.03125 14.953125 -21.03125 C 14.972656 -21.03125 15.003906 -21.03125 15.046875 -21.03125 C 16.015625 -21.03125 16.960938 -21.03125 17.890625 -21.03125 C 18.828125 -21.03125 19.757812 -21.03125 20.6875 -21.03125 C 20.84375 -21.03125 20.984375 -21.035156 21.109375 -21.046875 C 21.242188 -21.066406 21.382812 -21.078125 21.53125 -21.078125 C 22.164062 -21.078125 22.800781 -21.285156 23.4375 -21.703125 C 23.800781 -21.960938 24.039062 -22.257812 24.15625 -22.59375 C 24.226562 -22.851562 24.3125 -23.09375 24.40625 -23.3125 C 24.5 -23.539062 24.566406 -23.785156 24.609375 -24.046875 C 24.679688 -24.566406 24.789062 -25.070312 24.9375 -25.5625 C 24.976562 -25.632812 25.023438 -25.707031 25.078125 -25.78125 C 25.140625 -25.851562 25.1875 -25.925781 25.21875 -26 C 25.257812 -26.039062 25.332031 -26.078125 25.4375 -26.109375 C 25.550781 -26.148438 25.628906 -26.148438 25.671875 -26.109375 C 25.703125 -26.078125 25.734375 -26.039062 25.765625 -26 C 25.804688 -25.96875 25.847656 -25.929688 25.890625 -25.890625 C 25.929688 -25.816406 25.953125 -25.707031 25.953125 -25.5625 C 25.953125 -25.375 25.957031 -25.175781 25.96875 -24.96875 C 25.988281 -24.757812 25.984375 -24.546875 25.953125 -24.328125 C 25.910156 -23.804688 25.867188 -23.273438 25.828125 -22.734375 C 25.796875 -22.191406 25.742188 -21.660156 25.671875 -21.140625 C 25.628906 -20.992188 25.609375 -20.832031 25.609375 -20.65625 C 25.609375 -20.488281 25.59375 -20.3125 25.5625 -20.125 C 25.519531 -19.238281 25.519531 -18.382812 25.5625 -17.5625 C 25.5625 -17.113281 25.613281 -16.664062 25.71875 -16.21875 C 25.832031 -15.769531 25.890625 -15.320312 25.890625 -14.875 C 25.890625 -14.800781 25.890625 -14.71875 25.890625 -14.625 C 25.890625 -14.53125 25.890625 -14.445312 25.890625 -14.375 C 25.816406 -14.070312 25.664062 -13.921875 25.4375 -13.921875 C 25.257812 -13.921875 25.113281 -13.992188 25 -14.140625 C 24.925781 -14.296875 24.867188 -14.390625 24.828125 -14.421875 C 24.753906 -14.609375 24.6875 -14.804688 24.625 -15.015625 C 24.570312 -15.222656 24.507812 -15.421875 24.4375 -15.609375 C 24.363281 -15.941406 24.269531 -16.285156 24.15625 -16.640625 C 24.039062 -16.992188 23.910156 -17.335938 23.765625 -17.671875 C 23.722656 -17.890625 23.570312 -18.054688 23.3125 -18.171875 C 23.238281 -18.242188 23.203125 -18.28125 23.203125 -18.28125 C 23.128906 -18.351562 23.054688 -18.410156 22.984375 -18.453125 C 22.910156 -18.492188 22.835938 -18.53125 22.765625 -18.5625 C 22.160156 -18.894531 21.503906 -19.0625 20.796875 -19.0625 C 19.898438 -19.0625 18.992188 -19.0625 18.078125 -19.0625 C 17.171875 -19.0625 16.269531 -19.082031 15.375 -19.125 C 15.15625 -19.125 14.929688 -19.085938 14.703125 -19.015625 C 14.671875 -19.015625 14.609375 -18.976562 14.515625 -18.90625 C 14.421875 -18.832031 14.375 -18.753906 14.375 -18.671875 C 14.332031 -18.566406 14.3125 -18.398438 14.3125 -18.171875 C 14.28125 -17.796875 14.265625 -17.40625 14.265625 -17 C 14.265625 -16.59375 14.242188 -16.179688 14.203125 -15.765625 C 14.203125 -15.617188 14.203125 -15.476562 14.203125 -15.34375 C 14.203125 -15.21875 14.179688 -15.082031 14.140625 -14.9375 C 14.066406 -14.375 14.019531 -13.8125 14 -13.25 C 13.988281 -12.695312 13.984375 -12.117188 13.984375 -11.515625 C 13.984375 -10.359375 13.984375 -9.175781 13.984375 -7.96875 C 13.984375 -6.757812 13.984375 -5.554688 13.984375 -4.359375 C 13.984375 -4.023438 13.988281 -3.691406 14 -3.359375 C 14.019531 -3.023438 14.03125 -2.6875 14.03125 -2.34375 C 14.03125 -2.269531 14.066406 -2.160156 14.140625 -2.015625 C 14.140625 -1.972656 14.195312 -1.914062 14.3125 -1.84375 C 14.425781 -1.769531 14.503906 -1.710938 14.546875 -1.671875 C 14.617188 -1.671875 14.703125 -1.671875 14.796875 -1.671875 C 14.890625 -1.671875 14.972656 -1.671875 15.046875 -1.671875 C 16.085938 -1.671875 17.128906 -1.671875 18.171875 -1.671875 C 19.210938 -1.671875 20.257812 -1.671875 21.3125 -1.671875 C 21.457031 -1.671875 21.601562 -1.671875 21.75 -1.671875 C 21.90625 -1.671875 22.054688 -1.691406 22.203125 -1.734375 C 22.609375 -1.804688 23.003906 -1.851562 23.390625 -1.875 C 23.785156 -1.894531 24.171875 -1.90625 24.546875 -1.90625 C 25.035156 -1.9375 25.492188 -2 25.921875 -2.09375 C 26.347656 -2.1875 26.785156 -2.289062 27.234375 -2.40625 C 27.609375 -2.519531 27.960938 -2.6875 28.296875 -2.90625 C 28.441406 -2.976562 28.570312 -3.050781 28.6875 -3.125 C 28.800781 -3.207031 28.910156 -3.285156 29.015625 -3.359375 C 29.285156 -3.578125 29.53125 -3.816406 29.75 -4.078125 C 29.863281 -4.265625 29.972656 -4.441406 30.078125 -4.609375 C 30.191406 -4.773438 30.285156 -4.9375 30.359375 -5.09375 C 30.441406 -5.3125 30.535156 -5.523438 30.640625 -5.734375 C 30.753906 -5.941406 30.847656 -6.132812 30.921875 -6.3125 C 31.148438 -6.6875 31.316406 -7.117188 31.421875 -7.609375 C 31.503906 -7.796875 31.570312 -8 31.625 -8.21875 C 31.675781 -8.445312 31.722656 -8.671875 31.765625 -8.890625 C 31.765625 -9.003906 31.800781 -9.171875 31.875 -9.390625 C 32.019531 -9.648438 32.1875 -9.78125 32.375 -9.78125 C 32.53125 -9.851562 32.671875 -9.84375 32.796875 -9.75 C 32.929688 -9.664062 33 -9.546875 33 -9.390625 C 33.03125 -8.941406 33.035156 -8.484375 33.015625 -8.015625 C 33.003906 -7.554688 32.941406 -7.101562 32.828125 -6.65625 C 32.785156 -6.28125 32.753906 -5.914062 32.734375 -5.5625 C 32.722656 -5.207031 32.695312 -4.84375 32.65625 -4.46875 C 32.65625 -4.019531 32.597656 -3.570312 32.484375 -3.125 C 32.453125 -2.976562 32.4375 -2.835938 32.4375 -2.703125 C 32.4375 -2.578125 32.414062 -2.441406 32.375 -2.296875 C 32.34375 -2.066406 32.328125 -1.835938 32.328125 -1.609375 C 32.328125 -1.390625 32.304688 -1.171875 32.265625 -0.953125 C 32.191406 -0.691406 32.082031 -0.484375 31.9375 -0.328125 C 31.78125 -0.253906 31.628906 -0.179688 31.484375 -0.109375 C 31.335938 -0.0351562 31.171875 0 30.984375 0 C 30.753906 0.0390625 30.523438 0.0625 30.296875 0.0625 C 30.078125 0.0625 29.835938 0.0625 29.578125 0.0625 C 27.679688 0.0625 25.78125 0.0625 23.875 0.0625 C 21.976562 0.0625 20.078125 0.0625 18.171875 0.0625 C 17.910156 0.0625 17.640625 0.0625 17.359375 0.0625 C 17.078125 0.0625 16.789062 0.0625 16.5 0.0625 Z M 16.5 0.0625 "/></g></g><g style="fill:#ffffff;fill-opacity:1;"><g transform="translate(72.140732, 40.259174)"><path style="stroke:none" d="M 6.4375 -17.734375 C 6.4375 -18.097656 6.4375 -18.445312 6.4375 -18.78125 C 6.4375 -19.125 6.4375 -19.460938 6.4375 -19.796875 C 6.4375 -20.015625 6.4375 -20.234375 6.4375 -20.453125 C 6.4375 -20.679688 6.453125 -20.910156 6.484375 -21.140625 C 6.523438 -21.328125 6.546875 -21.519531 6.546875 -21.71875 C 6.546875 -21.925781 6.546875 -22.125 6.546875 -22.3125 C 6.546875 -23.613281 6.546875 -24.90625 6.546875 -26.1875 C 6.546875 -27.476562 6.5625 -28.757812 6.59375 -30.03125 C 6.59375 -30.21875 6.59375 -30.410156 6.59375 -30.609375 C 6.59375 -30.816406 6.554688 -31.015625 6.484375 -31.203125 C 6.453125 -31.503906 6.425781 -31.789062 6.40625 -32.0625 C 6.382812 -32.34375 6.375 -32.613281 6.375 -32.875 C 6.375 -33.507812 6.375 -34.113281 6.375 -34.6875 C 6.375 -35.269531 6.375 -35.863281 6.375 -36.46875 C 6.375 -36.6875 6.351562 -36.851562 6.3125 -36.96875 C 6.238281 -37.113281 6.1875 -37.207031 6.15625 -37.25 C 5.851562 -37.46875 5.550781 -37.632812 5.25 -37.75 C 5.070312 -37.78125 4.878906 -37.816406 4.671875 -37.859375 C 4.460938 -37.898438 4.265625 -37.9375 4.078125 -37.96875 C 3.929688 -38.039062 3.773438 -38.078125 3.609375 -38.078125 C 3.441406 -38.078125 3.265625 -38.097656 3.078125 -38.140625 C 2.847656 -38.210938 2.734375 -38.34375 2.734375 -38.53125 C 2.773438 -38.601562 2.804688 -38.65625 2.828125 -38.6875 C 2.847656 -38.726562 2.875 -38.769531 2.90625 -38.8125 C 3.09375 -39 3.296875 -39.09375 3.515625 -39.09375 C 3.628906 -39.125 3.800781 -39.140625 4.03125 -39.140625 C 6.226562 -39.140625 8.414062 -39.140625 10.59375 -39.140625 C 12.78125 -39.140625 14.953125 -39.140625 17.109375 -39.140625 C 17.222656 -39.140625 17.34375 -39.128906 17.46875 -39.109375 C 17.601562 -39.097656 17.726562 -39.09375 17.84375 -39.09375 C 17.988281 -39.050781 18.097656 -38.957031 18.171875 -38.8125 C 18.242188 -38.738281 18.253906 -38.625 18.203125 -38.46875 C 18.148438 -38.320312 18.082031 -38.226562 18 -38.1875 C 17.664062 -38.113281 17.332031 -38.039062 17 -37.96875 C 16.664062 -37.894531 16.347656 -37.800781 16.046875 -37.6875 C 15.671875 -37.582031 15.335938 -37.359375 15.046875 -37.015625 C 15.003906 -36.984375 14.945312 -36.890625 14.875 -36.734375 C 14.800781 -36.472656 14.726562 -36.203125 14.65625 -35.921875 C 14.582031 -35.648438 14.546875 -35.363281 14.546875 -35.0625 C 14.546875 -34.539062 14.535156 -34.007812 14.515625 -33.46875 C 14.492188 -32.925781 14.484375 -32.375 14.484375 -31.8125 C 14.484375 -30.320312 14.484375 -28.800781 14.484375 -27.25 C 14.484375 -25.707031 14.484375 -24.171875 14.484375 -22.640625 C 14.484375 -21.710938 14.484375 -20.78125 14.484375 -19.84375 C 14.484375 -18.914062 14.484375 -17.96875 14.484375 -17 C 14.523438 -15.695312 14.535156 -14.375 14.515625 -13.03125 C 14.492188 -11.6875 14.460938 -10.34375 14.421875 -9 C 14.390625 -8.070312 14.378906 -7.125 14.390625 -6.15625 C 14.410156 -5.1875 14.421875 -4.21875 14.421875 -3.25 C 14.421875 -3.0625 14.441406 -2.929688 14.484375 -2.859375 C 14.484375 -2.671875 14.554688 -2.535156 14.703125 -2.453125 C 14.890625 -2.304688 15.085938 -2.1875 15.296875 -2.09375 C 15.503906 -2 15.71875 -1.953125 15.9375 -1.953125 C 16.34375 -1.921875 16.769531 -1.90625 17.21875 -1.90625 C 17.664062 -1.90625 18.097656 -1.90625 18.515625 -1.90625 C 18.804688 -1.863281 19.09375 -1.84375 19.375 -1.84375 C 19.65625 -1.84375 19.925781 -1.828125 20.1875 -1.796875 C 20.632812 -1.753906 21.085938 -1.722656 21.546875 -1.703125 C 22.015625 -1.679688 22.472656 -1.671875 22.921875 -1.671875 C 23.078125 -1.671875 23.21875 -1.679688 23.34375 -1.703125 C 23.476562 -1.722656 23.617188 -1.753906 23.765625 -1.796875 C 23.953125 -1.867188 24.117188 -1.867188 24.265625 -1.796875 C 24.421875 -1.753906 24.5625 -1.734375 24.6875 -1.734375 C 24.820312 -1.734375 24.960938 -1.753906 25.109375 -1.796875 C 25.410156 -1.867188 25.691406 -1.941406 25.953125 -2.015625 C 26.210938 -2.085938 26.472656 -2.160156 26.734375 -2.234375 C 27.398438 -2.460938 27.921875 -2.875 28.296875 -3.46875 C 28.929688 -4.507812 29.4375 -5.535156 29.8125 -6.546875 C 29.988281 -6.992188 30.179688 -7.429688 30.390625 -7.859375 C 30.597656 -8.285156 30.773438 -8.742188 30.921875 -9.234375 C 31.078125 -9.523438 31.226562 -9.742188 31.375 -9.890625 C 31.632812 -10.160156 31.894531 -10.238281 32.15625 -10.125 C 32.226562 -10.125 32.300781 -10.082031 32.375 -10 C 32.445312 -9.925781 32.503906 -9.875 32.546875 -9.84375 C 32.546875 -9.769531 32.554688 -9.6875 32.578125 -9.59375 C 32.597656 -9.5 32.609375 -9.414062 32.609375 -9.34375 C 32.609375 -9.082031 32.609375 -8.835938 32.609375 -8.609375 C 32.609375 -8.390625 32.609375 -8.164062 32.609375 -7.9375 C 32.609375 -7.082031 32.597656 -6.207031 32.578125 -5.3125 C 32.554688 -4.414062 32.546875 -3.539062 32.546875 -2.6875 C 32.546875 -2.238281 32.4375 -1.789062 32.21875 -1.34375 C 32.101562 -1.007812 31.859375 -0.710938 31.484375 -0.453125 C 31.441406 -0.410156 31.347656 -0.351562 31.203125 -0.28125 C 31.128906 -0.28125 31.046875 -0.28125 30.953125 -0.28125 C 30.859375 -0.28125 30.773438 -0.28125 30.703125 -0.28125 C 30.367188 -0.238281 30.039062 -0.21875 29.71875 -0.21875 C 29.40625 -0.21875 29.097656 -0.21875 28.796875 -0.21875 C 28.503906 -0.1875 28.195312 -0.171875 27.875 -0.171875 C 27.5625 -0.171875 27.253906 -0.132812 26.953125 -0.0625 C 26.835938 -0.0195312 26.722656 0 26.609375 0 C 26.503906 0 26.394531 0 26.28125 0 C 25.71875 0 25.164062 0.0078125 24.625 0.03125 C 24.09375 0.0507812 23.566406 0.0625 23.046875 0.0625 C 19.648438 0.09375 16.265625 0.0976562 12.890625 0.078125 C 9.515625 0.0664062 6.128906 0.0390625 2.734375 0 C 2.628906 0 2.519531 0 2.40625 0 C 2.289062 0 2.175781 -0.0195312 2.0625 -0.0625 C 1.914062 -0.132812 1.828125 -0.1875 1.796875 -0.21875 C 1.679688 -0.289062 1.628906 -0.394531 1.640625 -0.53125 C 1.660156 -0.664062 1.710938 -0.75 1.796875 -0.78125 C 1.941406 -0.925781 2.125 -1.039062 2.34375 -1.125 C 2.945312 -1.34375 3.488281 -1.507812 3.96875 -1.625 C 4.226562 -1.65625 4.460938 -1.71875 4.671875 -1.8125 C 4.878906 -1.90625 5.070312 -1.988281 5.25 -2.0625 C 5.332031 -2.101562 5.410156 -2.148438 5.484375 -2.203125 C 5.554688 -2.265625 5.628906 -2.3125 5.703125 -2.34375 C 5.847656 -2.5 5.941406 -2.648438 5.984375 -2.796875 C 6.054688 -3.242188 6.128906 -3.691406 6.203125 -4.140625 C 6.273438 -4.585938 6.3125 -5.035156 6.3125 -5.484375 C 6.3125 -6.035156 6.3125 -6.597656 6.3125 -7.171875 C 6.3125 -7.753906 6.332031 -8.328125 6.375 -8.890625 C 6.375 -10.378906 6.375 -11.859375 6.375 -13.328125 C 6.375 -14.804688 6.375 -16.273438 6.375 -17.734375 C 6.414062 -17.734375 6.4375 -17.734375 6.4375 -17.734375 Z M 6.4375 -17.734375 "/></g></g><g style="fill:#ffffff;fill-opacity:1;"><g transform="translate(105.472933, 40.259174)"><path style="stroke:none" d="M 6.4375 -17.734375 C 6.4375 -18.097656 6.4375 -18.445312 6.4375 -18.78125 C 6.4375 -19.125 6.4375 -19.460938 6.4375 -19.796875 C 6.4375 -20.015625 6.4375 -20.234375 6.4375 -20.453125 C 6.4375 -20.679688 6.453125 -20.910156 6.484375 -21.140625 C 6.523438 -21.328125 6.546875 -21.519531 6.546875 -21.71875 C 6.546875 -21.925781 6.546875 -22.125 6.546875 -22.3125 C 6.546875 -23.613281 6.546875 -24.90625 6.546875 -26.1875 C 6.546875 -27.476562 6.5625 -28.757812 6.59375 -30.03125 C 6.59375 -30.21875 6.59375 -30.410156 6.59375 -30.609375 C 6.59375 -30.816406 6.554688 -31.015625 6.484375 -31.203125 C 6.453125 -31.503906 6.425781 -31.789062 6.40625 -32.0625 C 6.382812 -32.34375 6.375 -32.613281 6.375 -32.875 C 6.375 -33.507812 6.375 -34.113281 6.375 -34.6875 C 6.375 -35.269531 6.375 -35.863281 6.375 -36.46875 C 6.375 -36.6875 6.351562 -36.851562 6.3125 -36.96875 C 6.238281 -37.113281 6.1875 -37.207031 6.15625 -37.25 C 5.851562 -37.46875 5.550781 -37.632812 5.25 -37.75 C 5.070312 -37.78125 4.878906 -37.816406 4.671875 -37.859375 C 4.460938 -37.898438 4.265625 -37.9375 4.078125 -37.96875 C 3.929688 -38.039062 3.773438 -38.078125 3.609375 -38.078125 C 3.441406 -38.078125 3.265625 -38.097656 3.078125 -38.140625 C 2.847656 -38.210938 2.734375 -38.34375 2.734375 -38.53125 C 2.773438 -38.601562 2.804688 -38.65625 2.828125 -38.6875 C 2.847656 -38.726562 2.875 -38.769531 2.90625 -38.8125 C 3.09375 -39 3.296875 -39.09375 3.515625 -39.09375 C 3.628906 -39.125 3.800781 -39.140625 4.03125 -39.140625 C 6.226562 -39.140625 8.414062 -39.140625 10.59375 -39.140625 C 12.78125 -39.140625 14.953125 -39.140625 17.109375 -39.140625 C 17.222656 -39.140625 17.34375 -39.128906 17.46875 -39.109375 C 17.601562 -39.097656 17.726562 -39.09375 17.84375 -39.09375 C 17.988281 -39.050781 18.097656 -38.957031 18.171875 -38.8125 C 18.242188 -38.738281 18.253906 -38.625 18.203125 -38.46875 C 18.148438 -38.320312 18.082031 -38.226562 18 -38.1875 C 17.664062 -38.113281 17.332031 -38.039062 17 -37.96875 C 16.664062 -37.894531 16.347656 -37.800781 16.046875 -37.6875 C 15.671875 -37.582031 15.335938 -37.359375 15.046875 -37.015625 C 15.003906 -36.984375 14.945312 -36.890625 14.875 -36.734375 C 14.800781 -36.472656 14.726562 -36.203125 14.65625 -35.921875 C 14.582031 -35.648438 14.546875 -35.363281 14.546875 -35.0625 C 14.546875 -34.539062 14.535156 -34.007812 14.515625 -33.46875 C 14.492188 -32.925781 14.484375 -32.375 14.484375 -31.8125 C 14.484375 -30.320312 14.484375 -28.800781 14.484375 -27.25 C 14.484375 -25.707031 14.484375 -24.171875 14.484375 -22.640625 C 14.484375 -21.710938 14.484375 -20.78125 14.484375 -19.84375 C 14.484375 -18.914062 14.484375 -17.96875 14.484375 -17 C 14.523438 -15.695312 14.535156 -14.375 14.515625 -13.03125 C 14.492188 -11.6875 14.460938 -10.34375 14.421875 -9 C 14.390625 -8.070312 14.378906 -7.125 14.390625 -6.15625 C 14.410156 -5.1875 14.421875 -4.21875 14.421875 -3.25 C 14.421875 -3.0625 14.441406 -2.929688 14.484375 -2.859375 C 14.484375 -2.671875 14.554688 -2.535156 14.703125 -2.453125 C 14.890625 -2.304688 15.085938 -2.1875 15.296875 -2.09375 C 15.503906 -2 15.71875 -1.953125 15.9375 -1.953125 C 16.34375 -1.921875 16.769531 -1.90625 17.21875 -1.90625 C 17.664062 -1.90625 18.097656 -1.90625 18.515625 -1.90625 C 18.804688 -1.863281 19.09375 -1.84375 19.375 -1.84375 C 19.65625 -1.84375 19.925781 -1.828125 20.1875 -1.796875 C 20.632812 -1.753906 21.085938 -1.722656 21.546875 -1.703125 C 22.015625 -1.679688 22.472656 -1.671875 22.921875 -1.671875 C 23.078125 -1.671875 23.21875 -1.679688 23.34375 -1.703125 C 23.476562 -1.722656 23.617188 -1.753906 23.765625 -1.796875 C 23.953125 -1.867188 24.117188 -1.867188 24.265625 -1.796875 C 24.421875 -1.753906 24.5625 -1.734375 24.6875 -1.734375 C 24.820312 -1.734375 24.960938 -1.753906 25.109375 -1.796875 C 25.410156 -1.867188 25.691406 -1.941406 25.953125 -2.015625 C 26.210938 -2.085938 26.472656 -2.160156 26.734375 -2.234375 C 27.398438 -2.460938 27.921875 -2.875 28.296875 -3.46875 C 28.929688 -4.507812 29.4375 -5.535156 29.8125 -6.546875 C 29.988281 -6.992188 30.179688 -7.429688 30.390625 -7.859375 C 30.597656 -8.285156 30.773438 -8.742188 30.921875 -9.234375 C 31.078125 -9.523438 31.226562 -9.742188 31.375 -9.890625 C 31.632812 -10.160156 31.894531 -10.238281 32.15625 -10.125 C 32.226562 -10.125 32.300781 -10.082031 32.375 -10 C 32.445312 -9.925781 32.503906 -9.875 32.546875 -9.84375 C 32.546875 -9.769531 32.554688 -9.6875 32.578125 -9.59375 C 32.597656 -9.5 32.609375 -9.414062 32.609375 -9.34375 C 32.609375 -9.082031 32.609375 -8.835938 32.609375 -8.609375 C 32.609375 -8.390625 32.609375 -8.164062 32.609375 -7.9375 C 32.609375 -7.082031 32.597656 -6.207031 32.578125 -5.3125 C 32.554688 -4.414062 32.546875 -3.539062 32.546875 -2.6875 C 32.546875 -2.238281 32.4375 -1.789062 32.21875 -1.34375 C 32.101562 -1.007812 31.859375 -0.710938 31.484375 -0.453125 C 31.441406 -0.410156 31.347656 -0.351562 31.203125 -0.28125 C 31.128906 -0.28125 31.046875 -0.28125 30.953125 -0.28125 C 30.859375 -0.28125 30.773438 -0.28125 30.703125 -0.28125 C 30.367188 -0.238281 30.039062 -0.21875 29.71875 -0.21875 C 29.40625 -0.21875 29.097656 -0.21875 28.796875 -0.21875 C 28.503906 -0.1875 28.195312 -0.171875 27.875 -0.171875 C 27.5625 -0.171875 27.253906 -0.132812 26.953125 -0.0625 C 26.835938 -0.0195312 26.722656 0 26.609375 0 C 26.503906 0 26.394531 0 26.28125 0 C 25.71875 0 25.164062 0.0078125 24.625 0.03125 C 24.09375 0.0507812 23.566406 0.0625 23.046875 0.0625 C 19.648438 0.09375 16.265625 0.0976562 12.890625 0.078125 C 9.515625 0.0664062 6.128906 0.0390625 2.734375 0 C 2.628906 0 2.519531 0 2.40625 0 C 2.289062 0 2.175781 -0.0195312 2.0625 -0.0625 C 1.914062 -0.132812 1.828125 -0.1875 1.796875 -0.21875 C 1.679688 -0.289062 1.628906 -0.394531 1.640625 -0.53125 C 1.660156 -0.664062 1.710938 -0.75 1.796875 -0.78125 C 1.941406 -0.925781 2.125 -1.039062 2.34375 -1.125 C 2.945312 -1.34375 3.488281 -1.507812 3.96875 -1.625 C 4.226562 -1.65625 4.460938 -1.71875 4.671875 -1.8125 C 4.878906 -1.90625 5.070312 -1.988281 5.25 -2.0625 C 5.332031 -2.101562 5.410156 -2.148438 5.484375 -2.203125 C 5.554688 -2.265625 5.628906 -2.3125 5.703125 -2.34375 C 5.847656 -2.5 5.941406 -2.648438 5.984375 -2.796875 C 6.054688 -3.242188 6.128906 -3.691406 6.203125 -4.140625 C 6.273438 -4.585938 6.3125 -5.035156 6.3125 -5.484375 C 6.3125 -6.035156 6.3125 -6.597656 6.3125 -7.171875 C 6.3125 -7.753906 6.332031 -8.328125 6.375 -8.890625 C 6.375 -10.378906 6.375 -11.859375 6.375 -13.328125 C 6.375 -14.804688 6.375 -16.273438 6.375 -17.734375 C 6.414062 -17.734375 6.4375 -17.734375 6.4375 -17.734375 Z M 6.4375 -17.734375 "/></g></g></g></g><g transform="matrix(1,0,0,1,119,39)"><g id="6e08ac8282" clip-path="url(#c38143d913)"><g style="fill:#ffffff;fill-opacity:1;"><g transform="translate(4.647179, 48.266032)"><path style="stroke:none" d="M 3.296875 -20.140625 L 21.015625 -20.140625 L 21.015625 -11.71875 L 3.296875 -11.71875 Z M 3.296875 -20.140625 "/></g></g></g></g><g transform="matrix(1,0,0,1,155,24)"><g id="ef31cba51d" clip-path="url(#951fd79230)"><g style="fill:#ffffff;fill-opacity:1;"><g transform="translate(1.137236, 15.391412)"><path style="stroke:none" d="M 0.984375 -13.515625 L 5.171875 -13.515625 C 6.441406 -13.515625 7.453125 -13.242188 8.203125 -12.703125 C 8.953125 -12.160156 9.328125 -11.285156 9.328125 -10.078125 C 9.328125 -8.722656 8.765625 -7.753906 7.640625 -7.171875 C 9.566406 -6.835938 10.53125 -5.703125 10.53125 -3.765625 C 10.53125 -2.628906 10.132812 -1.71875 9.34375 -1.03125 C 8.5625 -0.34375 7.484375 0 6.109375 0 L 0.984375 0 Z M 4.0625 -8.21875 L 4.3125 -8.21875 C 5 -8.21875 5.507812 -8.335938 5.84375 -8.578125 C 6.1875 -8.816406 6.359375 -9.210938 6.359375 -9.765625 C 6.359375 -10.679688 5.675781 -11.140625 4.3125 -11.140625 L 4.0625 -11.140625 Z M 4.0625 -2.375 L 5.03125 -2.375 C 6.53125 -2.375 7.28125 -2.875 7.28125 -3.875 C 7.28125 -4.476562 7.09375 -4.910156 6.71875 -5.171875 C 6.34375 -5.429688 5.78125 -5.5625 5.03125 -5.5625 L 4.0625 -5.5625 Z M 4.0625 -2.375 "/></g></g><g style="fill:#ffffff;fill-opacity:1;"><g transform="translate(12.040723, 15.391412)"><path style="stroke:none" d="M 5.203125 0 L -0.453125 -13.515625 L 3.015625 -13.515625 L 6.421875 -4.640625 L 9.828125 -13.515625 L 13.296875 -13.515625 L 7.625 0 Z M 5.203125 0 "/></g></g><g style="fill:#ffffff;fill-opacity:1;"><g transform="translate(24.876062, 15.391412)"><path style="stroke:none" d="M 0.984375 -13.515625 L 4.890625 -13.515625 C 6.773438 -13.515625 8.378906 -12.867188 9.703125 -11.578125 C 11.035156 -10.296875 11.703125 -8.691406 11.703125 -6.765625 C 11.703125 -4.816406 11.039062 -3.203125 9.71875 -1.921875 C 8.394531 -0.640625 6.785156 0 4.890625 0 L 0.984375 0 Z M 4.0625 -2.75 L 4.53125 -2.75 C 5.65625 -2.75 6.578125 -3.128906 7.296875 -3.890625 C 8.015625 -4.648438 8.378906 -5.601562 8.390625 -6.75 C 8.390625 -7.894531 8.03125 -8.847656 7.3125 -9.609375 C 6.59375 -10.378906 5.664062 -10.765625 4.53125 -10.765625 L 4.0625 -10.765625 Z M 4.0625 -2.75 "/></g></g><g style="fill:#ffffff;fill-opacity:1;"><g transform="translate(36.958306, 15.391412)"><path style="stroke:none" d="M 11.359375 -13.515625 L 11.359375 -4.796875 C 11.359375 -3.140625 10.910156 -1.882812 10.015625 -1.03125 C 9.117188 -0.175781 7.804688 0.25 6.078125 0.25 C 4.359375 0.25 3.050781 -0.175781 2.15625 -1.03125 C 1.257812 -1.882812 0.8125 -3.140625 0.8125 -4.796875 L 0.8125 -13.515625 L 3.890625 -13.515625 L 3.890625 -5.703125 C 3.890625 -4.609375 4.0625 -3.847656 4.40625 -3.421875 C 4.75 -2.992188 5.304688 -2.78125 6.078125 -2.78125 C 6.859375 -2.78125 7.421875 -2.992188 7.765625 -3.421875 C 8.109375 -3.847656 8.28125 -4.609375 8.28125 -5.703125 L 8.28125 -13.515625 Z M 11.359375 -13.515625 "/></g></g><g style="fill:#ffffff;fill-opacity:1;"><g transform="translate(49.138775, 15.391412)"><path style="stroke:none" d=""/></g></g><g style="fill:#ffffff;fill-opacity:1;"><g transform="translate(53.608219, 15.391412)"><path style="stroke:none" d="M 0.984375 -13.515625 L 4.890625 -13.515625 C 6.773438 -13.515625 8.378906 -12.867188 9.703125 -11.578125 C 11.035156 -10.296875 11.703125 -8.691406 11.703125 -6.765625 C 11.703125 -4.816406 11.039062 -3.203125 9.71875 -1.921875 C 8.394531 -0.640625 6.785156 0 4.890625 0 L 0.984375 0 Z M 4.0625 -2.75 L 4.53125 -2.75 C 5.65625 -2.75 6.578125 -3.128906 7.296875 -3.890625 C 8.015625 -4.648438 8.378906 -5.601562 8.390625 -6.75 C 8.390625 -7.894531 8.03125 -8.847656 7.3125 -9.609375 C 6.59375 -10.378906 5.664062 -10.765625 4.53125 -10.765625 L 4.0625 -10.765625 Z M 4.0625 -2.75 "/></g></g><g style="fill:#ffffff;fill-opacity:1;"><g transform="translate(65.690462, 15.391412)"><path style="stroke:none" d="M 8.71875 -13.515625 L 8.71875 -10.8125 L 4.0625 -10.8125 L 4.0625 -8.125 L 8.515625 -8.125 L 8.515625 -5.421875 L 4.0625 -5.421875 L 4.0625 -2.703125 L 8.71875 -2.703125 L 8.71875 0 L 0.984375 0 L 0.984375 -13.515625 Z M 8.71875 -13.515625 "/></g></g><g style="fill:#ffffff;fill-opacity:1;"><g transform="translate(75.185993, 15.391412)"><path style="stroke:none" d="M 0.125 -10.8125 L 0.125 -13.515625 L 9.625 -13.515625 L 9.625 -10.8125 L 6.421875 -10.8125 L 6.421875 0 L 3.34375 0 L 3.34375 -10.8125 Z M 0.125 -10.8125 "/></g></g><g style="fill:#ffffff;fill-opacity:1;"><g transform="translate(84.943471, 15.391412)"><path style="stroke:none" d=""/></g></g><g style="fill:#ffffff;fill-opacity:1;"><g transform="translate(89.412914, 15.391412)"><path style="stroke:none" d="M 4.0625 -8.390625 L 4.0625 0 L 0.984375 0 L 0.984375 -13.515625 L 4.0625 -13.515625 L 9.4375 -5.125 L 9.46875 -5.125 L 9.46875 -13.515625 L 12.546875 -13.515625 L 12.546875 0 L 9.46875 0 L 4.09375 -8.390625 Z M 4.0625 -8.390625 "/></g></g><g style="fill:#ffffff;fill-opacity:1;"><g transform="translate(102.935862, 15.391412)"><path style="stroke:none" d="M 12.15625 0 L 11.515625 -8 L 11.4375 -8 L 8.65625 -0.078125 L 6.828125 -0.078125 L 4.0625 -8 L 3.984375 -8 L 3.34375 0 L 0.265625 0 L 1.46875 -13.515625 L 4.75 -13.515625 L 7.75 -5.71875 L 10.734375 -13.515625 L 14.015625 -13.515625 L 15.234375 0 Z M 12.15625 0 "/></g></g></g></g><g clip-rule="nonzero" clip-path="url(#6ade8536d3)"><g transform="matrix(1,0,0,1,105,104)"><g id="fbaf7b0879" clip-path="url(#21b73f9a6c)"><g clip-rule="nonzero" clip-path="url(#dca622e4bb)"><g style="fill:#ffffff;fill-opacity:1;"><g transform="translate(0.767178, 9.634668)"><path style="stroke:none" d="M 0.078125 -6.5625 L 0.078125 -8.21875 L 5.859375 -8.21875 L 5.859375 -6.5625 L 3.90625 -6.5625 L 3.90625 0 L 2.03125 0 L 2.03125 -6.5625 Z M 0.078125 -6.5625 "/></g></g></g><g style="fill:#ffffff;fill-opacity:1;"><g transform="translate(6.69836, 9.634668)"><path style="stroke:none" d="M 2.46875 -3.296875 L 2.46875 0 L 0.59375 0 L 0.59375 -8.21875 L 2.46875 -8.21875 L 2.46875 -4.9375 L 5.109375 -4.9375 L 5.109375 -8.21875 L 6.984375 -8.21875 L 6.984375 0 L 5.109375 0 L 5.109375 -3.296875 Z M 2.46875 -3.296875 "/></g></g><g style="fill:#ffffff;fill-opacity:1;"><g transform="translate(14.281517, 9.634668)"><path style="stroke:none" d="M 5.296875 -8.21875 L 5.296875 -6.5625 L 2.46875 -6.5625 L 2.46875 -4.9375 L 5.171875 -4.9375 L 5.171875 -3.296875 L 2.46875 -3.296875 L 2.46875 -1.640625 L 5.296875 -1.640625 L 5.296875 0 L 0.59375 0 L 0.59375 -8.21875 Z M 5.296875 -8.21875 "/></g></g><g style="fill:#ffffff;fill-opacity:1;"><g transform="translate(20.053477, 9.634668)"><path style="stroke:none" d=""/></g></g><g style="fill:#ffffff;fill-opacity:1;"><g transform="translate(22.770274, 9.634668)"><path style="stroke:none" d="M 0.59375 -8.21875 L 3.59375 -8.21875 C 4.425781 -8.21875 5.101562 -8 5.625 -7.5625 C 6.144531 -7.132812 6.40625 -6.507812 6.40625 -5.6875 C 6.40625 -4.863281 6.140625 -4.21875 5.609375 -3.75 C 5.085938 -3.28125 4.414062 -3.046875 3.59375 -3.046875 L 2.46875 -3.046875 L 2.46875 0 L 0.59375 0 Z M 2.46875 -4.53125 L 3 -4.53125 C 3.414062 -4.53125 3.753906 -4.613281 4.015625 -4.78125 C 4.285156 -4.957031 4.421875 -5.238281 4.421875 -5.625 C 4.421875 -6.007812 4.285156 -6.285156 4.015625 -6.453125 C 3.753906 -6.628906 3.414062 -6.71875 3 -6.71875 L 2.46875 -6.71875 Z M 2.46875 -4.53125 "/></g></g><g style="fill:#ffffff;fill-opacity:1;"><g transform="translate(29.398073, 9.634668)"><path style="stroke:none" d="M 0.234375 -4.109375 C 0.234375 -5.296875 0.632812 -6.300781 1.4375 -7.125 C 2.25 -7.945312 3.226562 -8.359375 4.375 -8.359375 C 5.519531 -8.359375 6.492188 -7.945312 7.296875 -7.125 C 8.097656 -6.3125 8.5 -5.304688 8.5 -4.109375 C 8.5 -2.910156 8.101562 -1.898438 7.3125 -1.078125 C 6.519531 -0.253906 5.539062 0.15625 4.375 0.15625 C 3.164062 0.15625 2.171875 -0.25 1.390625 -1.0625 C 0.617188 -1.882812 0.234375 -2.898438 0.234375 -4.109375 Z M 2.25 -4.109375 C 2.25 -3.679688 2.3125 -3.289062 2.4375 -2.9375 C 2.570312 -2.582031 2.804688 -2.28125 3.140625 -2.03125 C 3.472656 -1.78125 3.882812 -1.65625 4.375 -1.65625 C 5.070312 -1.65625 5.597656 -1.894531 5.953125 -2.375 C 6.304688 -2.851562 6.484375 -3.429688 6.484375 -4.109375 C 6.484375 -4.773438 6.300781 -5.347656 5.9375 -5.828125 C 5.570312 -6.316406 5.050781 -6.5625 4.375 -6.5625 C 3.695312 -6.5625 3.171875 -6.316406 2.796875 -5.828125 C 2.429688 -5.347656 2.25 -4.773438 2.25 -4.109375 Z M 2.25 -4.109375 "/></g></g><g style="fill:#ffffff;fill-opacity:1;"><g transform="translate(38.125677, 9.634668)"><path style="stroke:none" d="M 6.890625 0 L 5.578125 -4.609375 L 4.265625 0 L 2.1875 0 L -0.15625 -8.21875 L 1.9375 -8.21875 L 3.328125 -2.578125 L 3.390625 -2.578125 L 4.875 -8.21875 L 6.296875 -8.21875 L 7.78125 -2.578125 L 7.828125 -2.578125 L 9.234375 -8.21875 L 11.3125 -8.21875 L 8.96875 0 Z M 6.890625 0 "/></g></g><g style="fill:#ffffff;fill-opacity:1;"><g transform="translate(49.28148, 9.634668)"><path style="stroke:none" d="M 5.296875 -8.21875 L 5.296875 -6.5625 L 2.46875 -6.5625 L 2.46875 -4.9375 L 5.171875 -4.9375 L 5.171875 -3.296875 L 2.46875 -3.296875 L 2.46875 -1.640625 L 5.296875 -1.640625 L 5.296875 0 L 0.59375 0 L 0.59375 -8.21875 Z M 5.296875 -8.21875 "/></g></g><g style="fill:#ffffff;fill-opacity:1;"><g transform="translate(55.05344, 9.634668)"><path style="stroke:none" d="M 0.59375 -8.21875 L 3.53125 -8.21875 C 4.320312 -8.21875 4.960938 -8.003906 5.453125 -7.578125 C 5.953125 -7.160156 6.203125 -6.554688 6.203125 -5.765625 C 6.203125 -5.160156 6.050781 -4.65625 5.75 -4.25 C 5.457031 -3.84375 5.050781 -3.554688 4.53125 -3.390625 L 7.359375 0 L 4.96875 0 L 2.46875 -3.25 L 2.46875 0 L 0.59375 0 Z M 2.46875 -4.5625 L 2.6875 -4.5625 C 2.863281 -4.5625 3.007812 -4.566406 3.125 -4.578125 C 3.238281 -4.585938 3.375 -4.609375 3.53125 -4.640625 C 3.6875 -4.679688 3.8125 -4.738281 3.90625 -4.8125 C 4 -4.882812 4.078125 -4.988281 4.140625 -5.125 C 4.203125 -5.269531 4.234375 -5.441406 4.234375 -5.640625 C 4.234375 -5.835938 4.203125 -6.003906 4.140625 -6.140625 C 4.078125 -6.285156 4 -6.394531 3.90625 -6.46875 C 3.8125 -6.539062 3.6875 -6.597656 3.53125 -6.640625 C 3.375 -6.679688 3.238281 -6.703125 3.125 -6.703125 C 3.007812 -6.710938 2.863281 -6.71875 2.6875 -6.71875 L 2.46875 -6.71875 Z M 2.46875 -4.5625 "/></g></g><g style="fill:#ffffff;fill-opacity:1;"><g transform="translate(62.178827, 9.634668)"><path style="stroke:none" d=""/></g></g><g style="fill:#ffffff;fill-opacity:1;"><g transform="translate(64.895624, 9.634668)"><path style="stroke:none" d="M 0.078125 -6.5625 L 0.078125 -8.21875 L 5.859375 -8.21875 L 5.859375 -6.5625 L 3.90625 -6.5625 L 3.90625 0 L 2.03125 0 L 2.03125 -6.5625 Z M 0.078125 -6.5625 "/></g></g><g style="fill:#ffffff;fill-opacity:1;"><g transform="translate(70.826805, 9.634668)"><path style="stroke:none" d="M 0.234375 -4.109375 C 0.234375 -5.296875 0.632812 -6.300781 1.4375 -7.125 C 2.25 -7.945312 3.226562 -8.359375 4.375 -8.359375 C 5.519531 -8.359375 6.492188 -7.945312 7.296875 -7.125 C 8.097656 -6.3125 8.5 -5.304688 8.5 -4.109375 C 8.5 -2.910156 8.101562 -1.898438 7.3125 -1.078125 C 6.519531 -0.253906 5.539062 0.15625 4.375 0.15625 C 3.164062 0.15625 2.171875 -0.25 1.390625 -1.0625 C 0.617188 -1.882812 0.234375 -2.898438 0.234375 -4.109375 Z M 2.25 -4.109375 C 2.25 -3.679688 2.3125 -3.289062 2.4375 -2.9375 C 2.570312 -2.582031 2.804688 -2.28125 3.140625 -2.03125 C 3.472656 -1.78125 3.882812 -1.65625 4.375 -1.65625 C 5.070312 -1.65625 5.597656 -1.894531 5.953125 -2.375 C 6.304688 -2.851562 6.484375 -3.429688 6.484375 -4.109375 C 6.484375 -4.773438 6.300781 -5.347656 5.9375 -5.828125 C 5.570312 -6.316406 5.050781 -6.5625 4.375 -6.5625 C 3.695312 -6.5625 3.171875 -6.316406 2.796875 -5.828125 C 2.429688 -5.347656 2.25 -4.773438 2.25 -4.109375 Z M 2.25 -4.109375 "/></g></g><g style="fill:#ffffff;fill-opacity:1;"><g transform="translate(79.554409, 9.634668)"><path style="stroke:none" d=""/></g></g><g style="fill:#ffffff;fill-opacity:1;"><g transform="translate(82.271206, 9.634668)"><path style="stroke:none" d="M 2.46875 -8.21875 L 2.46875 0 L 0.59375 0 L 0.59375 -8.21875 Z M 2.46875 -8.21875 "/></g></g><g style="fill:#ffffff;fill-opacity:1;"><g transform="translate(85.336311, 9.634668)"><path style="stroke:none" d="M 2.46875 -5.09375 L 2.46875 0 L 0.59375 0 L 0.59375 -8.21875 L 2.46875 -8.21875 L 5.734375 -3.109375 L 5.75 -3.109375 L 5.75 -8.21875 L 7.625 -8.21875 L 7.625 0 L 5.75 0 L 2.484375 -5.09375 Z M 2.46875 -5.09375 "/></g></g><g style="fill:#ffffff;fill-opacity:1;"><g transform="translate(93.556374, 9.634668)"><path style="stroke:none" d="M 3.625 -8.359375 C 4.070312 -8.359375 4.503906 -8.289062 4.921875 -8.15625 C 5.347656 -8.03125 5.664062 -7.90625 5.875 -7.78125 L 6.171875 -7.578125 L 5.421875 -6.09375 C 5.359375 -6.132812 5.269531 -6.1875 5.15625 -6.25 C 5.050781 -6.3125 4.851562 -6.394531 4.5625 -6.5 C 4.269531 -6.601562 4 -6.65625 3.75 -6.65625 C 3.4375 -6.65625 3.195312 -6.585938 3.03125 -6.453125 C 2.863281 -6.328125 2.78125 -6.148438 2.78125 -5.921875 C 2.78125 -5.804688 2.816406 -5.703125 2.890625 -5.609375 C 2.972656 -5.515625 3.109375 -5.410156 3.296875 -5.296875 C 3.492188 -5.191406 3.664062 -5.101562 3.8125 -5.03125 C 3.957031 -4.96875 4.179688 -4.867188 4.484375 -4.734375 C 5.015625 -4.515625 5.46875 -4.207031 5.84375 -3.8125 C 6.21875 -3.425781 6.40625 -2.988281 6.40625 -2.5 C 6.40625 -2.03125 6.320312 -1.617188 6.15625 -1.265625 C 5.988281 -0.910156 5.753906 -0.632812 5.453125 -0.4375 C 5.160156 -0.238281 4.832031 -0.09375 4.46875 0 C 4.113281 0.101562 3.726562 0.15625 3.3125 0.15625 C 2.957031 0.15625 2.601562 0.117188 2.25 0.046875 C 1.90625 -0.0234375 1.617188 -0.113281 1.390625 -0.21875 C 1.160156 -0.332031 0.953125 -0.441406 0.765625 -0.546875 C 0.578125 -0.660156 0.441406 -0.753906 0.359375 -0.828125 L 0.234375 -0.9375 L 1.171875 -2.515625 C 1.242188 -2.441406 1.347656 -2.351562 1.484375 -2.25 C 1.628906 -2.144531 1.878906 -2.003906 2.234375 -1.828125 C 2.585938 -1.660156 2.898438 -1.578125 3.171875 -1.578125 C 3.960938 -1.578125 4.359375 -1.847656 4.359375 -2.390625 C 4.359375 -2.503906 4.328125 -2.609375 4.265625 -2.703125 C 4.210938 -2.796875 4.113281 -2.890625 3.96875 -2.984375 C 3.832031 -3.085938 3.707031 -3.164062 3.59375 -3.21875 C 3.488281 -3.269531 3.3125 -3.351562 3.0625 -3.46875 C 2.8125 -3.59375 2.628906 -3.6875 2.515625 -3.75 C 2.015625 -3.988281 1.628906 -4.289062 1.359375 -4.65625 C 1.085938 -5.03125 0.953125 -5.429688 0.953125 -5.859375 C 0.953125 -6.585938 1.222656 -7.1875 1.765625 -7.65625 C 2.304688 -8.125 2.925781 -8.359375 3.625 -8.359375 Z M 3.625 -8.359375 "/></g></g><g style="fill:#ffffff;fill-opacity:1;"><g transform="translate(100.243885, 9.634668)"><path style="stroke:none" d="M 0.59375 -8.21875 L 3.59375 -8.21875 C 4.425781 -8.21875 5.101562 -8 5.625 -7.5625 C 6.144531 -7.132812 6.40625 -6.507812 6.40625 -5.6875 C 6.40625 -4.863281 6.140625 -4.21875 5.609375 -3.75 C 5.085938 -3.28125 4.414062 -3.046875 3.59375 -3.046875 L 2.46875 -3.046875 L 2.46875 0 L 0.59375 0 Z M 2.46875 -4.53125 L 3 -4.53125 C 3.414062 -4.53125 3.753906 -4.613281 4.015625 -4.78125 C 4.285156 -4.957031 4.421875 -5.238281 4.421875 -5.625 C 4.421875 -6.007812 4.285156 -6.285156 4.015625 -6.453125 C 3.753906 -6.628906 3.414062 -6.71875 3 -6.71875 L 2.46875 -6.71875 Z M 2.46875 -4.53125 "/></g></g><g style="fill:#ffffff;fill-opacity:1;"><g transform="translate(106.871684, 9.634668)"><path style="stroke:none" d="M 2.46875 -8.21875 L 2.46875 0 L 0.59375 0 L 0.59375 -8.21875 Z M 2.46875 -8.21875 "/></g></g><g style="fill:#ffffff;fill-opacity:1;"><g transform="translate(109.93679, 9.634668)"><path style="stroke:none" d="M 0.59375 -8.21875 L 3.53125 -8.21875 C 4.320312 -8.21875 4.960938 -8.003906 5.453125 -7.578125 C 5.953125 -7.160156 6.203125 -6.554688 6.203125 -5.765625 C 6.203125 -5.160156 6.050781 -4.65625 5.75 -4.25 C 5.457031 -3.84375 5.050781 -3.554688 4.53125 -3.390625 L 7.359375 0 L 4.96875 0 L 2.46875 -3.25 L 2.46875 0 L 0.59375 0 Z M 2.46875 -4.5625 L 2.6875 -4.5625 C 2.863281 -4.5625 3.007812 -4.566406 3.125 -4.578125 C 3.238281 -4.585938 3.375 -4.609375 3.53125 -4.640625 C 3.6875 -4.679688 3.8125 -4.738281 3.90625 -4.8125 C 4 -4.882812 4.078125 -4.988281 4.140625 -5.125 C 4.203125 -5.269531 4.234375 -5.441406 4.234375 -5.640625 C 4.234375 -5.835938 4.203125 -6.003906 4.140625 -6.140625 C 4.078125 -6.285156 4 -6.394531 3.90625 -6.46875 C 3.8125 -6.539062 3.6875 -6.597656 3.53125 -6.640625 C 3.375 -6.679688 3.238281 -6.703125 3.125 -6.703125 C 3.007812 -6.710938 2.863281 -6.71875 2.6875 -6.71875 L 2.46875 -6.71875 Z M 2.46875 -4.5625 "/></g></g><g style="fill:#ffffff;fill-opacity:1;"><g transform="translate(117.062177, 9.634668)"><path style="stroke:none" d="M 5.296875 -8.21875 L 5.296875 -6.5625 L 2.46875 -6.5625 L 2.46875 -4.9375 L 5.171875 -4.9375 L 5.171875 -3.296875 L 2.46875 -3.296875 L 2.46875 -1.640625 L 5.296875 -1.640625 L 5.296875 0 L 0.59375 0 L 0.59375 -8.21875 Z M 5.296875 -8.21875 "/></g></g><g style="fill:#ffffff;fill-opacity:1;"><g transform="translate(122.834137, 9.634668)"><path style="stroke:none" d=""/></g></g><g style="fill:#ffffff;fill-opacity:1;"><g transform="translate(125.550934, 9.634668)"><path style="stroke:none" d="M 0.28125 -2.15625 C 0.28125 -2.40625 0.335938 -2.640625 0.453125 -2.859375 C 0.566406 -3.085938 0.726562 -3.296875 0.9375 -3.484375 C 1.144531 -3.671875 1.351562 -3.832031 1.5625 -3.96875 C 1.769531 -4.113281 2.015625 -4.257812 2.296875 -4.40625 C 1.742188 -5.09375 1.46875 -5.695312 1.46875 -6.21875 C 1.46875 -6.875 1.691406 -7.394531 2.140625 -7.78125 C 2.597656 -8.164062 3.242188 -8.359375 4.078125 -8.359375 C 4.847656 -8.359375 5.445312 -8.140625 5.875 -7.703125 C 6.300781 -7.273438 6.515625 -6.78125 6.515625 -6.21875 C 6.515625 -5.988281 6.457031 -5.757812 6.34375 -5.53125 C 6.238281 -5.3125 6.109375 -5.125 5.953125 -4.96875 C 5.796875 -4.8125 5.632812 -4.671875 5.46875 -4.546875 C 5.3125 -4.429688 5.175781 -4.347656 5.0625 -4.296875 L 4.890625 -4.203125 L 5.984375 -3.0625 C 6.222656 -3.164062 6.628906 -3.507812 7.203125 -4.09375 L 8.34375 -2.96875 C 7.976562 -2.539062 7.59375 -2.164062 7.1875 -1.84375 L 8.953125 0 L 6.59375 0 L 5.78125 -0.84375 C 5.53125 -0.664062 5.34375 -0.535156 5.21875 -0.453125 C 5.101562 -0.378906 4.925781 -0.28125 4.6875 -0.15625 C 4.457031 -0.0390625 4.21875 0.0351562 3.96875 0.078125 C 3.71875 0.128906 3.441406 0.15625 3.140625 0.15625 C 2.878906 0.15625 2.625 0.128906 2.375 0.078125 C 2.125 0.0351562 1.867188 -0.0351562 1.609375 -0.140625 C 1.359375 -0.253906 1.132812 -0.394531 0.9375 -0.5625 C 0.75 -0.726562 0.59375 -0.945312 0.46875 -1.21875 C 0.34375 -1.488281 0.28125 -1.800781 0.28125 -2.15625 Z M 4.078125 -7.03125 C 3.835938 -7.03125 3.65625 -6.953125 3.53125 -6.796875 C 3.414062 -6.648438 3.359375 -6.457031 3.359375 -6.21875 C 3.359375 -6.082031 3.40625 -5.925781 3.5 -5.75 C 3.601562 -5.582031 3.707031 -5.453125 3.8125 -5.359375 L 3.96875 -5.21875 C 4.570312 -5.550781 4.875 -5.882812 4.875 -6.21875 C 4.875 -6.757812 4.609375 -7.03125 4.078125 -7.03125 Z M 4.5625 -2.09375 L 3.265625 -3.375 C 3.242188 -3.363281 3.210938 -3.347656 3.171875 -3.328125 C 3.128906 -3.316406 3.054688 -3.28125 2.953125 -3.21875 C 2.859375 -3.15625 2.773438 -3.082031 2.703125 -3 C 2.628906 -2.925781 2.5625 -2.828125 2.5 -2.703125 C 2.4375 -2.578125 2.40625 -2.445312 2.40625 -2.3125 C 2.40625 -2.09375 2.5 -1.921875 2.6875 -1.796875 C 2.875 -1.679688 3.085938 -1.625 3.328125 -1.625 C 3.535156 -1.625 3.738281 -1.660156 3.9375 -1.734375 C 4.144531 -1.804688 4.300781 -1.882812 4.40625 -1.96875 Z M 4.5625 -2.09375 "/></g></g><g style="fill:#ffffff;fill-opacity:1;"><g transform="translate(133.840661, 9.634668)"><path style="stroke:none" d=""/></g></g><g style="fill:#ffffff;fill-opacity:1;"><g transform="translate(136.557457, 9.634668)"><path style="stroke:none" d="M 2.46875 -8.21875 L 2.46875 0 L 0.59375 0 L 0.59375 -8.21875 Z M 2.46875 -8.21875 "/></g></g><g style="fill:#ffffff;fill-opacity:1;"><g transform="translate(139.622563, 9.634668)"><path style="stroke:none" d="M 2.46875 -5.09375 L 2.46875 0 L 0.59375 0 L 0.59375 -8.21875 L 2.46875 -8.21875 L 5.734375 -3.109375 L 5.75 -3.109375 L 5.75 -8.21875 L 7.625 -8.21875 L 7.625 0 L 5.75 0 L 2.484375 -5.09375 Z M 2.46875 -5.09375 "/></g></g><g style="fill:#ffffff;fill-opacity:1;"><g transform="translate(147.842626, 9.634668)"><path style="stroke:none" d="M 2.46875 -5.09375 L 2.46875 0 L 0.59375 0 L 0.59375 -8.21875 L 2.46875 -8.21875 L 5.734375 -3.109375 L 5.75 -3.109375 L 5.75 -8.21875 L 7.625 -8.21875 L 7.625 0 L 5.75 0 L 2.484375 -5.09375 Z M 2.46875 -5.09375 "/></g></g><g style="fill:#ffffff;fill-opacity:1;"><g transform="translate(156.06269, 9.634668)"><path style="stroke:none" d="M 0.234375 -4.109375 C 0.234375 -5.296875 0.632812 -6.300781 1.4375 -7.125 C 2.25 -7.945312 3.226562 -8.359375 4.375 -8.359375 C 5.519531 -8.359375 6.492188 -7.945312 7.296875 -7.125 C 8.097656 -6.3125 8.5 -5.304688 8.5 -4.109375 C 8.5 -2.910156 8.101562 -1.898438 7.3125 -1.078125 C 6.519531 -0.253906 5.539062 0.15625 4.375 0.15625 C 3.164062 0.15625 2.171875 -0.25 1.390625 -1.0625 C 0.617188 -1.882812 0.234375 -2.898438 0.234375 -4.109375 Z M 2.25 -4.109375 C 2.25 -3.679688 2.3125 -3.289062 2.4375 -2.9375 C 2.570312 -2.582031 2.804688 -2.28125 3.140625 -2.03125 C 3.472656 -1.78125 3.882812 -1.65625 4.375 -1.65625 C 5.070312 -1.65625 5.597656 -1.894531 5.953125 -2.375 C 6.304688 -2.851562 6.484375 -3.429688 6.484375 -4.109375 C 6.484375 -4.773438 6.300781 -5.347656 5.9375 -5.828125 C 5.570312 -6.316406 5.050781 -6.5625 4.375 -6.5625 C 3.695312 -6.5625 3.171875 -6.316406 2.796875 -5.828125 C 2.429688 -5.347656 2.25 -4.773438 2.25 -4.109375 Z M 2.25 -4.109375 "/></g></g><g style="fill:#ffffff;fill-opacity:1;"><g transform="translate(164.790294, 9.634668)"><path style="stroke:none" d="M 3.171875 0 L -0.28125 -8.21875 L 1.828125 -8.21875 L 3.90625 -2.8125 L 5.96875 -8.21875 L 8.078125 -8.21875 L 4.640625 0 Z M 3.171875 0 "/></g></g><g style="fill:#ffffff;fill-opacity:1;"><g transform="translate(172.592394, 9.634668)"><path style="stroke:none" d="M 4.765625 -8.21875 L 8.078125 0 L 6.078125 0 L 5.46875 -1.640625 L 2.34375 -1.640625 L 1.734375 0 L -0.28125 0 L 3.03125 -8.21875 Z M 4.828125 -3.28125 L 3.90625 -5.671875 L 3.890625 -5.671875 L 2.96875 -3.28125 Z M 4.828125 -3.28125 "/></g></g><g style="fill:#ffffff;fill-opacity:1;"><g transform="translate(180.394495, 9.634668)"><path style="stroke:none" d="M 0.078125 -6.5625 L 0.078125 -8.21875 L 5.859375 -8.21875 L 5.859375 -6.5625 L 3.90625 -6.5625 L 3.90625 0 L 2.03125 0 L 2.03125 -6.5625 Z M 0.078125 -6.5625 "/></g></g><g style="fill:#ffffff;fill-opacity:1;"><g transform="translate(186.325667, 9.634668)"><path style="stroke:none" d="M 5.296875 -8.21875 L 5.296875 -6.5625 L 2.46875 -6.5625 L 2.46875 -4.9375 L 5.171875 -4.9375 L 5.171875 -3.296875 L 2.46875 -3.296875 L 2.46875 -1.640625 L 5.296875 -1.640625 L 5.296875 0 L 0.59375 0 L 0.59375 -8.21875 Z M 5.296875 -8.21875 "/></g></g></g></g></g></g></g></g></g></svg>